<svg xmlns="http://www.w3.org/2000/svg" width="2048" height="2048" viewBox="0 0 2048 2048" role="img" aria-label="PattyOps icon"><title>PattyOps icon</title><g transform="translate(-256 -496) scale(4)"><path fill="#282828" fill-rule="evenodd" d="M143.0,205.5 L144.0,205.5 L145.0,205.5 L146.0,205.5 L147.0,205.5 L148.0,205.5 L149.0,205.5 L150.0,205.5 L151.0,205.5 L152.0,205.5 L153.0,205.5 L154.0,205.5 L155.0,205.5 L156.0,205.5 L157.0,205.5 L158.0,205.5 L159.0,205.5 L160.0,205.5 L161.0,205.5 L162.0,205.5 L163.0,205.5 L164.0,205.5 L165.0,205.5 L166.0,205.5 L167.0,205.5 L168.0,205.5 L169.0,205.5 L170.0,205.5 L171.0,205.5 L172.0,205.5 L173.0,205.5 L174.0,205.5 L175.0,205.5 L176.0,205.5 L177.0,205.5 L178.0,205.5 L179.0,205.5 L180.0,205.5 L181.0,205.5 L182.0,205.5 L183.0,205.5 L184.0,205.5 L185.0,205.5 L186.0,205.5 L187.0,205.5 L188.0,205.5 L189.0,205.5 L190.0,205.5 L191.0,205.5 L192.0,205.5 L193.0,205.5 L194.0,205.5 L195.0,205.5 L196.0,205.5 L197.0,205.5 L198.0,205.5 L199.0,205.5 L200.0,205.5 L201.0,205.5 L202.0,205.5 L203.0,205.5 L204.0,205.5 L205.0,205.5 L206.0,205.5 L207.0,205.5 L208.0,205.5 L209.0,205.5 L210.0,205.5 L211.0,205.5 L212.0,205.5 L213.0,205.5 L214.0,205.5 L215.0,205.5 L216.0,205.5 L217.0,205.5 L218.0,205.5 L219.0,205.5 L220.0,205.5 L220.5,206.0 L221.0,206.5 L222.0,206.5 L223.0,206.5 L223.5,207.0 L224.0,207.5 L224.5,208.0 L225.0,208.5 L225.5,209.0 L226.0,209.5 L226.5,210.0 L227.0,210.5 L227.5,211.0 L227.5,212.0 L228.0,212.5 L228.5,213.0 L228.5,214.0 L228.5,215.0 L228.5,216.0 L228.5,217.0 L228.5,218.0 L228.5,219.0 L228.5,220.0 L228.5,221.0 L228.5,222.0 L228.5,223.0 L228.5,224.0 L228.5,225.0 L228.5,226.0 L228.5,227.0 L228.0,227.5 L227.5,228.0 L227.5,229.0 L227.0,229.5 L226.5,230.0 L226.0,230.5 L225.5,231.0 L225.5,232.0 L225.0,232.5 L224.5,233.0 L224.0,233.5 L223.0,233.5 L222.5,234.0 L222.0,234.5 L221.0,234.5 L220.0,234.5 L219.0,234.5 L218.0,234.5 L217.0,234.5 L216.0,234.5 L215.0,234.5 L214.0,234.5 L213.0,234.5 L212.0,234.5 L211.0,234.5 L210.0,234.5 L209.0,234.5 L208.0,234.5 L207.0,234.5 L206.0,234.5 L205.0,234.5 L204.0,234.5 L203.0,234.5 L202.0,234.5 L201.0,234.5 L200.0,234.5 L199.0,234.5 L198.0,234.5 L197.0,234.5 L196.0,234.5 L195.0,234.5 L194.0,234.5 L193.0,234.5 L192.0,234.5 L191.0,234.5 L190.0,234.5 L189.0,234.5 L188.0,234.5 L187.0,234.5 L186.0,234.5 L185.0,234.5 L184.0,234.5 L183.0,234.5 L182.0,234.5 L181.0,234.5 L180.0,234.5 L179.0,234.5 L178.0,234.5 L177.0,234.5 L176.0,234.5 L175.0,234.5 L174.0,234.5 L173.0,234.5 L172.0,234.5 L171.0,234.5 L170.0,234.5 L169.0,234.5 L168.0,234.5 L167.0,234.5 L166.0,234.5 L165.0,234.5 L164.0,234.5 L163.0,234.5 L162.0,234.5 L161.5,235.0 L161.0,235.5 L160.5,236.0 L160.5,237.0 L160.5,238.0 L160.5,239.0 L160.5,240.0 L160.5,241.0 L160.5,242.0 L160.5,243.0 L160.5,244.0 L160.5,245.0 L160.5,246.0 L160.5,247.0 L160.5,248.0 L160.5,249.0 L160.5,250.0 L160.5,251.0 L160.5,252.0 L160.5,253.0 L160.5,254.0 L160.5,255.0 L160.5,256.0 L160.5,257.0 L160.5,258.0 L160.5,259.0 L160.5,260.0 L160.5,261.0 L160.5,262.0 L160.5,263.0 L160.5,264.0 L160.5,265.0 L160.5,266.0 L160.5,267.0 L160.5,268.0 L160.5,269.0 L160.5,270.0 L160.5,271.0 L160.5,272.0 L160.5,273.0 L160.5,274.0 L160.5,275.0 L160.5,276.0 L160.5,277.0 L160.5,278.0 L160.5,279.0 L160.5,280.0 L160.5,281.0 L160.5,282.0 L160.5,283.0 L160.5,284.0 L160.5,285.0 L160.5,286.0 L160.5,287.0 L160.5,288.0 L160.5,289.0 L160.5,290.0 L160.5,291.0 L160.5,292.0 L160.5,293.0 L160.0,293.5 L159.5,294.0 L159.5,295.0 L159.0,295.5 L158.5,296.0 L158.5,297.0 L158.0,297.5 L157.5,298.0 L157.0,298.5 L156.0,298.5 L155.5,299.0 L155.0,299.5 L154.0,299.5 L153.0,299.5 L152.0,299.5 L151.0,299.5 L150.0,299.5 L149.0,299.5 L148.0,299.5 L147.0,299.5 L146.0,299.5 L145.0,299.5 L144.0,299.5 L143.0,299.5 L142.0,299.5 L141.0,299.5 L140.0,299.5 L139.0,299.5 L138.0,299.5 L137.0,299.5 L136.0,299.5 L135.5,299.0 L135.0,298.5 L134.0,298.5 L133.5,298.0 L133.0,297.5 L132.5,297.0 L132.5,296.0 L132.0,295.5 L131.5,295.0 L131.5,294.0 L131.0,293.5 L130.5,293.0 L130.5,292.0 L130.5,291.0 L130.5,290.0 L130.5,289.0 L130.5,288.0 L130.5,287.0 L130.5,286.0 L130.5,285.0 L130.5,284.0 L130.5,283.0 L130.5,282.0 L130.5,281.0 L130.5,280.0 L130.5,279.0 L130.5,278.0 L130.5,277.0 L130.5,276.0 L130.5,275.0 L130.5,274.0 L130.5,273.0 L130.5,272.0 L130.5,271.0 L130.5,270.0 L130.5,269.0 L130.5,268.0 L130.5,267.0 L130.5,266.0 L130.5,265.0 L130.5,264.0 L130.5,263.0 L130.5,262.0 L130.5,261.0 L130.5,260.0 L130.5,259.0 L130.5,258.0 L130.5,257.0 L130.5,256.0 L130.5,255.0 L130.5,254.0 L130.5,253.0 L130.5,252.0 L130.5,251.0 L130.5,250.0 L130.5,249.0 L130.5,248.0 L130.5,247.0 L130.5,246.0 L130.5,245.0 L130.5,244.0 L130.5,243.0 L130.5,242.0 L130.5,241.0 L130.5,240.0 L130.5,239.0 L130.5,238.0 L130.5,237.0 L130.5,236.0 L130.5,235.0 L130.5,234.0 L130.5,233.0 L130.5,232.0 L130.5,231.0 L130.5,230.0 L130.5,229.0 L130.5,228.0 L130.5,227.0 L130.5,226.0 L130.5,225.0 L130.5,224.0 L130.5,223.0 L130.5,222.0 L130.5,221.0 L130.5,220.0 L130.5,219.0 L131.0,218.5 L131.5,218.0 L131.5,217.0 L131.5,216.0 L132.0,215.5 L132.5,215.0 L132.5,214.0 L133.0,213.5 L133.5,213.0 L133.5,212.0 L134.0,211.5 L134.5,211.0 L135.0,210.5 L135.5,210.0 L136.0,209.5 L136.5,209.0 L137.0,208.5 L137.5,208.0 L138.0,207.5 L139.0,207.5 L139.5,207.0 L140.0,206.5 L141.0,206.5 L142.0,206.5 L142.5,206.0 L143.0,205.5 Z M419.0,205.5 L420.0,205.5 L421.0,205.5 L422.0,205.5 L423.0,205.5 L424.0,205.5 L425.0,205.5 L426.0,205.5 L427.0,205.5 L428.0,205.5 L429.0,205.5 L430.0,205.5 L431.0,205.5 L432.0,205.5 L433.0,205.5 L434.0,205.5 L435.0,205.5 L436.0,205.5 L437.0,205.5 L438.0,205.5 L439.0,205.5 L440.0,205.5 L441.0,205.5 L442.0,205.5 L443.0,205.5 L444.0,205.5 L445.0,205.5 L446.0,205.5 L447.0,205.5 L448.0,205.5 L449.0,205.5 L450.0,205.5 L451.0,205.5 L452.0,205.5 L453.0,205.5 L454.0,205.5 L455.0,205.5 L456.0,205.5 L457.0,205.5 L458.0,205.5 L459.0,205.5 L460.0,205.5 L461.0,205.5 L462.0,205.5 L463.0,205.5 L464.0,205.5 L465.0,205.5 L466.0,205.5 L467.0,205.5 L468.0,205.5 L469.0,205.5 L470.0,205.5 L471.0,205.5 L472.0,205.5 L473.0,205.5 L474.0,205.5 L475.0,205.5 L476.0,205.5 L477.0,205.5 L478.0,205.5 L479.0,205.5 L480.0,205.5 L481.0,205.5 L482.0,205.5 L483.0,205.5 L484.0,205.5 L485.0,205.5 L486.0,205.5 L487.0,205.5 L488.0,205.5 L489.0,205.5 L490.0,205.5 L491.0,205.5 L492.0,205.5 L493.0,205.5 L494.0,205.5 L495.0,205.5 L495.5,206.0 L496.0,206.5 L497.0,206.5 L498.0,206.5 L498.5,207.0 L499.0,207.5 L500.0,207.5 L500.5,208.0 L501.0,208.5 L502.0,208.5 L502.5,209.0 L503.0,209.5 L503.5,210.0 L504.0,210.5 L504.5,211.0 L504.5,212.0 L505.0,212.5 L505.5,213.0 L505.5,214.0 L506.0,214.5 L506.5,215.0 L506.5,216.0 L507.0,216.5 L507.5,217.0 L507.5,218.0 L507.5,219.0 L507.5,220.0 L507.5,221.0 L507.5,222.0 L507.5,223.0 L507.5,224.0 L507.5,225.0 L507.5,226.0 L507.5,227.0 L507.5,228.0 L507.5,229.0 L507.5,230.0 L507.5,231.0 L507.5,232.0 L507.5,233.0 L507.5,234.0 L507.5,235.0 L507.5,236.0 L507.5,237.0 L507.5,238.0 L507.5,239.0 L507.5,240.0 L507.5,241.0 L507.5,242.0 L507.5,243.0 L507.5,244.0 L507.5,245.0 L507.5,246.0 L507.5,247.0 L507.5,248.0 L507.5,249.0 L507.5,250.0 L507.5,251.0 L507.5,252.0 L507.5,253.0 L507.5,254.0 L507.5,255.0 L507.5,256.0 L507.5,257.0 L507.5,258.0 L507.5,259.0 L507.5,260.0 L507.5,261.0 L507.5,262.0 L507.5,263.0 L507.5,264.0 L507.5,265.0 L507.5,266.0 L507.5,267.0 L507.5,268.0 L507.5,269.0 L507.5,270.0 L507.5,271.0 L507.5,272.0 L507.5,273.0 L507.5,274.0 L507.5,275.0 L507.5,276.0 L507.5,277.0 L507.5,278.0 L507.5,279.0 L507.5,280.0 L507.5,281.0 L507.5,282.0 L507.5,283.0 L507.5,284.0 L507.5,285.0 L507.5,286.0 L507.5,287.0 L507.5,288.0 L507.5,289.0 L507.5,290.0 L507.5,291.0 L507.5,292.0 L507.5,293.0 L507.5,294.0 L507.0,294.5 L506.5,295.0 L506.5,296.0 L506.0,296.5 L505.5,297.0 L505.0,297.5 L504.5,298.0 L504.0,298.5 L503.0,298.5 L502.5,299.0 L502.0,299.5 L501.0,299.5 L500.0,299.5 L499.0,299.5 L498.0,299.5 L497.0,299.5 L496.0,299.5 L495.0,299.5 L494.0,299.5 L493.0,299.5 L492.0,299.5 L491.0,299.5 L490.0,299.5 L489.0,299.5 L488.0,299.5 L487.0,299.5 L486.0,299.5 L485.0,299.5 L484.0,299.5 L483.0,299.5 L482.5,299.0 L482.0,298.5 L481.5,298.0 L481.0,297.5 L480.5,297.0 L480.0,296.5 L479.5,296.0 L479.0,295.5 L478.5,295.0 L478.5,294.0 L478.5,293.0 L478.5,292.0 L478.5,291.0 L478.0,290.5 L477.5,290.0 L477.5,289.0 L477.5,288.0 L477.5,287.0 L477.5,286.0 L477.5,285.0 L477.5,284.0 L477.5,283.0 L477.5,282.0 L477.5,281.0 L477.5,280.0 L477.5,279.0 L477.5,278.0 L477.5,277.0 L477.5,276.0 L477.5,275.0 L477.5,274.0 L477.5,273.0 L477.5,272.0 L477.5,271.0 L477.5,270.0 L477.5,269.0 L477.5,268.0 L477.5,267.0 L477.5,266.0 L477.5,265.0 L477.5,264.0 L477.5,263.0 L477.5,262.0 L477.5,261.0 L477.5,260.0 L478.0,259.5 L478.5,259.0 L478.5,258.0 L478.5,257.0 L478.5,256.0 L478.5,255.0 L478.5,254.0 L478.5,253.0 L478.5,252.0 L478.5,251.0 L478.5,250.0 L478.5,249.0 L478.5,248.0 L478.5,247.0 L478.5,246.0 L478.5,245.0 L478.5,244.0 L478.5,243.0 L478.0,242.5 L477.5,242.0 L477.5,241.0 L477.5,240.0 L477.5,239.0 L477.5,238.0 L477.5,237.0 L477.5,236.0 L477.5,235.0 L477.0,234.5 L476.0,234.5 L475.0,234.5 L474.0,234.5 L473.0,234.5 L472.0,234.5 L471.0,234.5 L470.0,234.5 L469.0,234.5 L468.0,234.5 L467.0,234.5 L466.0,234.5 L465.0,234.5 L464.0,234.5 L463.0,234.5 L462.0,234.5 L461.0,234.5 L460.0,234.5 L459.0,234.5 L458.0,234.5 L457.0,234.5 L456.0,234.5 L455.0,234.5 L454.0,234.5 L453.0,234.5 L452.0,234.5 L451.0,234.5 L450.0,234.5 L449.0,234.5 L448.0,234.5 L447.0,234.5 L446.0,234.5 L445.0,234.5 L444.0,234.5 L443.0,234.5 L442.0,234.5 L441.0,234.5 L440.0,234.5 L439.0,234.5 L438.0,234.5 L437.0,234.5 L436.0,234.5 L435.0,234.5 L434.0,234.5 L433.0,234.5 L432.0,234.5 L431.0,234.5 L430.0,234.5 L429.0,234.5 L428.0,234.5 L427.0,234.5 L426.0,234.5 L425.0,234.5 L424.0,234.5 L423.0,234.5 L422.0,234.5 L421.0,234.5 L420.0,234.5 L419.0,234.5 L418.0,234.5 L417.5,234.0 L417.0,233.5 L416.0,233.5 L415.0,233.5 L414.5,233.0 L414.0,232.5 L413.5,232.0 L413.0,231.5 L412.5,231.0 L412.0,230.5 L411.5,230.0 L411.5,229.0 L411.0,228.5 L410.5,228.0 L410.5,227.0 L410.5,226.0 L410.5,225.0 L410.5,224.0 L410.5,223.0 L410.5,222.0 L410.5,221.0 L410.5,220.0 L410.5,219.0 L410.5,218.0 L410.5,217.0 L410.5,216.0 L410.5,215.0 L410.5,214.0 L410.5,213.0 L411.0,212.5 L411.5,212.0 L411.5,211.0 L412.0,210.5 L412.5,210.0 L413.0,209.5 L413.5,209.0 L414.0,208.5 L414.5,208.0 L415.0,207.5 L415.5,207.0 L416.0,206.5 L417.0,206.5 L418.0,206.5 L418.5,206.0 L419.0,205.5 Z M137.0,458.5 L138.0,458.5 L139.0,458.5 L140.0,458.5 L141.0,458.5 L142.0,458.5 L143.0,458.5 L144.0,458.5 L145.0,458.5 L146.0,458.5 L147.0,458.5 L148.0,458.5 L149.0,458.5 L150.0,458.5 L151.0,458.5 L152.0,458.5 L153.0,458.5 L154.0,458.5 L154.5,459.0 L155.0,459.5 L156.0,459.5 L156.5,460.0 L157.0,460.5 L157.5,461.0 L158.0,461.5 L158.5,462.0 L159.0,462.5 L159.5,463.0 L159.5,464.0 L160.0,464.5 L160.5,465.0 L160.5,466.0 L160.5,467.0 L160.5,468.0 L160.5,469.0 L160.5,470.0 L160.5,471.0 L160.5,472.0 L160.5,473.0 L160.5,474.0 L160.5,475.0 L160.5,476.0 L160.5,477.0 L160.5,478.0 L160.5,479.0 L160.5,480.0 L160.5,481.0 L160.5,482.0 L160.5,483.0 L160.5,484.0 L160.5,485.0 L160.5,486.0 L160.5,487.0 L160.5,488.0 L160.5,489.0 L160.5,490.0 L160.5,491.0 L160.5,492.0 L160.5,493.0 L160.5,494.0 L160.5,495.0 L160.5,496.0 L160.5,497.0 L160.5,498.0 L160.5,499.0 L160.5,500.0 L160.5,501.0 L160.5,502.0 L160.5,503.0 L160.5,504.0 L160.5,505.0 L160.5,506.0 L160.5,507.0 L160.5,508.0 L160.5,509.0 L160.5,510.0 L160.5,511.0 L160.5,512.0 L160.5,513.0 L160.5,514.0 L160.5,515.0 L160.5,516.0 L160.5,517.0 L160.5,518.0 L160.5,519.0 L160.5,520.0 L160.5,521.0 L160.5,522.0 L161.0,522.5 L162.0,522.5 L163.0,522.5 L164.0,522.5 L165.0,522.5 L166.0,522.5 L167.0,522.5 L168.0,522.5 L169.0,522.5 L170.0,522.5 L171.0,522.5 L172.0,522.5 L173.0,522.5 L174.0,522.5 L175.0,522.5 L176.0,522.5 L177.0,522.5 L178.0,522.5 L179.0,522.5 L180.0,522.5 L181.0,522.5 L182.0,522.5 L183.0,522.5 L184.0,522.5 L185.0,522.5 L186.0,522.5 L187.0,522.5 L188.0,522.5 L189.0,522.5 L190.0,522.5 L191.0,522.5 L192.0,522.5 L193.0,522.5 L194.0,522.5 L195.0,522.5 L196.0,522.5 L197.0,522.5 L198.0,522.5 L199.0,522.5 L200.0,522.5 L201.0,522.5 L202.0,522.5 L203.0,522.5 L204.0,522.5 L205.0,522.5 L206.0,522.5 L207.0,522.5 L208.0,522.5 L209.0,522.5 L210.0,522.5 L211.0,522.5 L212.0,522.5 L213.0,522.5 L214.0,522.5 L215.0,522.5 L216.0,522.5 L217.0,522.5 L218.0,522.5 L219.0,522.5 L220.0,522.5 L220.5,523.0 L221.0,523.5 L222.0,523.5 L223.0,523.5 L223.5,524.0 L224.0,524.5 L224.5,525.0 L225.0,525.5 L225.5,526.0 L226.0,526.5 L226.5,527.0 L227.0,527.5 L227.5,528.0 L227.5,529.0 L228.0,529.5 L228.5,530.0 L228.5,531.0 L228.5,532.0 L228.5,533.0 L228.5,534.0 L228.5,535.0 L228.5,536.0 L228.5,537.0 L228.5,538.0 L228.5,539.0 L228.5,540.0 L228.5,541.0 L228.5,542.0 L228.5,543.0 L228.5,544.0 L228.5,545.0 L228.0,545.5 L227.5,546.0 L227.0,546.5 L226.5,547.0 L226.5,548.0 L226.0,548.5 L225.5,549.0 L225.0,549.5 L224.0,549.5 L223.5,550.0 L223.0,550.5 L222.5,551.0 L222.0,551.5 L221.0,551.5 L220.0,551.5 L219.0,551.5 L218.0,551.5 L217.5,552.0 L217.0,552.5 L216.0,552.5 L215.0,552.5 L214.0,552.5 L213.0,552.5 L212.0,552.5 L211.0,552.5 L210.0,552.5 L209.0,552.5 L208.0,552.5 L207.0,552.5 L206.0,552.5 L205.0,552.5 L204.0,552.5 L203.0,552.5 L202.0,552.5 L201.0,552.5 L200.0,552.5 L199.0,552.5 L198.5,552.0 L198.0,551.5 L197.0,551.5 L196.0,551.5 L195.0,551.5 L194.0,551.5 L193.0,551.5 L192.0,551.5 L191.0,551.5 L190.0,551.5 L189.0,551.5 L188.0,551.5 L187.0,551.5 L186.0,551.5 L185.5,552.0 L185.0,552.5 L184.0,552.5 L183.0,552.5 L182.0,552.5 L181.0,552.5 L180.0,552.5 L179.0,552.5 L178.0,552.5 L177.0,552.5 L176.0,552.5 L175.0,552.5 L174.0,552.5 L173.0,552.5 L172.0,552.5 L171.0,552.5 L170.5,552.0 L170.0,551.5 L169.0,551.5 L168.0,551.5 L167.0,551.5 L166.0,551.5 L165.0,551.5 L164.0,551.5 L163.0,551.5 L162.0,551.5 L161.0,551.5 L160.0,551.5 L159.0,551.5 L158.0,551.5 L157.0,551.5 L156.0,551.5 L155.0,551.5 L154.0,551.5 L153.0,551.5 L152.0,551.5 L151.0,551.5 L150.0,551.5 L149.0,551.5 L148.0,551.5 L147.0,551.5 L146.0,551.5 L145.0,551.5 L144.0,551.5 L143.0,551.5 L142.0,551.5 L141.0,551.5 L140.5,551.0 L140.0,550.5 L139.0,550.5 L138.5,550.0 L138.0,549.5 L137.0,549.5 L136.5,549.0 L136.0,548.5 L135.5,548.0 L135.0,547.5 L134.5,547.0 L134.0,546.5 L133.5,546.0 L133.5,545.0 L133.0,544.5 L132.5,544.0 L132.5,543.0 L132.0,542.5 L131.5,542.0 L131.5,541.0 L131.5,540.0 L131.5,539.0 L131.0,538.5 L130.5,538.0 L130.5,537.0 L130.5,536.0 L130.5,535.0 L130.5,534.0 L130.5,533.0 L130.5,532.0 L130.5,531.0 L130.5,530.0 L130.5,529.0 L130.5,528.0 L130.5,527.0 L130.5,526.0 L130.5,525.0 L130.5,524.0 L130.5,523.0 L130.5,522.0 L130.5,521.0 L130.5,520.0 L130.5,519.0 L130.5,518.0 L130.5,517.0 L130.5,516.0 L130.5,515.0 L130.5,514.0 L130.5,513.0 L130.5,512.0 L130.5,511.0 L130.5,510.0 L130.5,509.0 L130.5,508.0 L130.5,507.0 L130.5,506.0 L130.5,505.0 L130.5,504.0 L130.5,503.0 L130.5,502.0 L130.5,501.0 L130.5,500.0 L130.5,499.0 L130.5,498.0 L130.5,497.0 L130.5,496.0 L130.5,495.0 L130.5,494.0 L130.5,493.0 L130.5,492.0 L130.5,491.0 L130.5,490.0 L130.5,489.0 L130.5,488.0 L130.5,487.0 L130.5,486.0 L130.5,485.0 L130.5,484.0 L130.5,483.0 L130.5,482.0 L130.5,481.0 L130.5,480.0 L130.5,479.0 L130.5,478.0 L130.5,477.0 L130.5,476.0 L130.5,475.0 L130.5,474.0 L130.5,473.0 L130.5,472.0 L130.5,471.0 L130.5,470.0 L130.5,469.0 L130.5,468.0 L130.5,467.0 L130.5,466.0 L130.5,465.0 L131.0,464.5 L131.5,464.0 L131.5,463.0 L132.0,462.5 L132.5,462.0 L133.0,461.5 L133.5,461.0 L134.0,460.5 L134.5,460.0 L135.0,459.5 L136.0,459.5 L136.5,459.0 L137.0,458.5 Z M484.0,458.5 L485.0,458.5 L486.0,458.5 L487.0,458.5 L488.0,458.5 L489.0,458.5 L490.0,458.5 L491.0,458.5 L492.0,458.5 L493.0,458.5 L494.0,458.5 L495.0,458.5 L496.0,458.5 L497.0,458.5 L498.0,458.5 L499.0,458.5 L500.0,458.5 L501.0,458.5 L502.0,458.5 L502.5,459.0 L503.0,459.5 L504.0,459.5 L504.5,460.0 L505.0,460.5 L505.5,461.0 L506.0,461.5 L506.5,462.0 L506.5,463.0 L507.0,463.5 L507.5,464.0 L507.5,465.0 L507.5,466.0 L507.5,467.0 L507.5,468.0 L507.5,469.0 L507.5,470.0 L507.5,471.0 L507.5,472.0 L507.5,473.0 L507.5,474.0 L507.5,475.0 L507.5,476.0 L507.5,477.0 L507.5,478.0 L507.5,479.0 L507.5,480.0 L507.5,481.0 L507.5,482.0 L507.5,483.0 L507.5,484.0 L507.5,485.0 L507.5,486.0 L507.5,487.0 L507.5,488.0 L507.5,489.0 L507.5,490.0 L507.5,491.0 L507.5,492.0 L507.5,493.0 L507.5,494.0 L507.5,495.0 L507.5,496.0 L507.5,497.0 L507.5,498.0 L507.5,499.0 L507.5,500.0 L507.5,501.0 L507.5,502.0 L507.5,503.0 L507.5,504.0 L507.5,505.0 L507.5,506.0 L507.5,507.0 L507.5,508.0 L507.5,509.0 L507.5,510.0 L507.5,511.0 L507.5,512.0 L507.5,513.0 L507.5,514.0 L507.5,515.0 L507.5,516.0 L507.5,517.0 L507.5,518.0 L507.5,519.0 L507.5,520.0 L507.5,521.0 L507.5,522.0 L507.5,523.0 L507.5,524.0 L507.5,525.0 L507.5,526.0 L507.5,527.0 L507.5,528.0 L507.5,529.0 L507.5,530.0 L507.5,531.0 L507.5,532.0 L507.5,533.0 L507.5,534.0 L507.5,535.0 L507.5,536.0 L507.5,537.0 L507.5,538.0 L507.5,539.0 L507.5,540.0 L507.0,540.5 L506.5,541.0 L506.5,542.0 L506.5,543.0 L506.0,543.5 L505.5,544.0 L505.5,545.0 L505.0,545.5 L504.5,546.0 L504.0,546.5 L503.5,547.0 L503.0,547.5 L502.5,548.0 L502.0,548.5 L501.5,549.0 L501.0,549.5 L500.5,550.0 L500.0,550.5 L499.0,550.5 L498.0,550.5 L497.5,551.0 L497.0,551.5 L496.0,551.5 L495.0,551.5 L494.0,551.5 L493.0,551.5 L492.0,551.5 L491.5,552.0 L491.0,552.5 L490.0,552.5 L489.0,552.5 L488.0,552.5 L487.0,552.5 L486.0,552.5 L485.0,552.5 L484.0,552.5 L483.0,552.5 L482.0,552.5 L481.0,552.5 L480.0,552.5 L479.0,552.5 L478.5,552.0 L478.0,551.5 L477.0,551.5 L476.0,551.5 L475.0,551.5 L474.0,551.5 L473.0,551.5 L472.0,551.5 L471.0,551.5 L470.0,551.5 L469.0,551.5 L468.0,551.5 L467.0,551.5 L466.0,551.5 L465.5,552.0 L465.0,552.5 L464.0,552.5 L463.0,552.5 L462.0,552.5 L461.0,552.5 L460.0,552.5 L459.0,552.5 L458.0,552.5 L457.0,552.5 L456.0,552.5 L455.0,552.5 L454.0,552.5 L453.0,552.5 L452.0,552.5 L451.0,552.5 L450.0,552.5 L449.0,552.5 L448.0,552.5 L447.0,552.5 L446.0,552.5 L445.0,552.5 L444.5,552.0 L444.0,551.5 L443.0,551.5 L442.0,551.5 L441.0,551.5 L440.0,551.5 L439.0,551.5 L438.0,551.5 L437.0,551.5 L436.0,551.5 L435.0,551.5 L434.0,551.5 L433.0,551.5 L432.0,551.5 L431.0,551.5 L430.0,551.5 L429.5,552.0 L429.0,552.5 L428.0,552.5 L427.0,552.5 L426.0,552.5 L425.0,552.5 L424.0,552.5 L423.0,552.5 L422.0,552.5 L421.0,552.5 L420.0,552.5 L419.0,552.5 L418.5,552.0 L418.0,551.5 L417.0,551.5 L416.5,551.0 L416.0,550.5 L415.0,550.5 L414.5,550.0 L414.0,549.5 L413.5,549.0 L413.0,548.5 L412.5,548.0 L412.0,547.5 L411.5,547.0 L411.5,546.0 L411.5,545.0 L411.0,544.5 L410.5,544.0 L410.5,543.0 L410.5,542.0 L410.5,541.0 L410.5,540.0 L410.5,539.0 L410.5,538.0 L410.5,537.0 L410.5,536.0 L410.5,535.0 L410.5,534.0 L410.5,533.0 L410.5,532.0 L410.5,531.0 L410.5,530.0 L411.0,529.5 L411.5,529.0 L411.5,528.0 L412.0,527.5 L412.5,527.0 L412.5,526.0 L413.0,525.5 L413.5,525.0 L414.0,524.5 L415.0,524.5 L415.5,524.0 L416.0,523.5 L417.0,523.5 L418.0,523.5 L418.5,523.0 L419.0,522.5 L420.0,522.5 L421.0,522.5 L422.0,522.5 L423.0,522.5 L424.0,522.5 L425.0,522.5 L426.0,522.5 L427.0,522.5 L428.0,522.5 L429.0,522.5 L430.0,522.5 L431.0,522.5 L432.0,522.5 L433.0,522.5 L434.0,522.5 L435.0,522.5 L436.0,522.5 L437.0,522.5 L438.0,522.5 L439.0,522.5 L440.0,522.5 L441.0,522.5 L442.0,522.5 L443.0,522.5 L444.0,522.5 L445.0,522.5 L446.0,522.5 L447.0,522.5 L448.0,522.5 L449.0,522.5 L450.0,522.5 L451.0,522.5 L452.0,522.5 L453.0,522.5 L454.0,522.5 L455.0,522.5 L456.0,522.5 L457.0,522.5 L458.0,522.5 L459.0,522.5 L460.0,522.5 L461.0,522.5 L462.0,522.5 L463.0,522.5 L464.0,522.5 L465.0,522.5 L466.0,522.5 L467.0,522.5 L468.0,522.5 L469.0,522.5 L470.0,522.5 L471.0,522.5 L472.0,522.5 L473.0,522.5 L474.0,522.5 L475.0,522.5 L476.0,522.5 L477.0,522.5 L477.5,522.0 L477.5,521.0 L477.5,520.0 L477.5,519.0 L477.5,518.0 L477.5,517.0 L477.5,516.0 L477.5,515.0 L477.5,514.0 L477.5,513.0 L477.5,512.0 L477.5,511.0 L477.5,510.0 L477.5,509.0 L477.5,508.0 L477.5,507.0 L477.5,506.0 L477.5,505.0 L477.5,504.0 L477.5,503.0 L477.5,502.0 L477.5,501.0 L477.5,500.0 L477.5,499.0 L477.5,498.0 L477.5,497.0 L477.5,496.0 L477.5,495.0 L477.5,494.0 L477.5,493.0 L477.5,492.0 L477.5,491.0 L477.5,490.0 L477.5,489.0 L477.5,488.0 L477.5,487.0 L477.5,486.0 L477.5,485.0 L477.5,484.0 L477.5,483.0 L477.5,482.0 L477.5,481.0 L477.5,480.0 L477.5,479.0 L477.5,478.0 L477.5,477.0 L477.5,476.0 L477.5,475.0 L477.5,474.0 L477.5,473.0 L477.5,472.0 L477.5,471.0 L477.5,470.0 L477.5,469.0 L477.5,468.0 L477.5,467.0 L477.5,466.0 L478.0,465.5 L478.5,465.0 L478.5,464.0 L478.5,463.0 L479.0,462.5 L479.5,462.0 L480.0,461.5 L480.5,461.0 L481.0,460.5 L481.5,460.0 L482.0,459.5 L483.0,459.5 L483.5,459.0 L484.0,458.5 Z"/><path fill="#CB500B" fill-rule="evenodd" d="M312.0,276.5 L313.0,276.5 L314.0,276.5 L315.0,276.5 L316.0,276.5 L317.0,276.5 L318.0,276.5 L319.0,276.5 L320.0,276.5 L321.0,276.5 L322.0,276.5 L323.0,276.5 L324.0,276.5 L325.0,276.5 L326.0,276.5 L327.0,276.5 L328.0,276.5 L329.0,276.5 L329.5,277.0 L330.0,277.5 L331.0,277.5 L332.0,277.5 L333.0,277.5 L334.0,277.5 L335.0,277.5 L336.0,277.5 L337.0,277.5 L338.0,277.5 L339.0,277.5 L340.0,277.5 L341.0,277.5 L342.0,277.5 L343.0,277.5 L343.5,278.0 L344.0,278.5 L345.0,278.5 L345.5,278.0 L346.0,277.5 L347.0,277.5 L347.5,278.0 L348.0,278.5 L349.0,278.5 L350.0,278.5 L351.0,278.5 L352.0,278.5 L353.0,278.5 L354.0,278.5 L354.5,279.0 L355.0,279.5 L356.0,279.5 L357.0,279.5 L358.0,279.5 L359.0,279.5 L360.0,279.5 L360.5,280.0 L361.0,280.5 L362.0,280.5 L363.0,280.5 L364.0,280.5 L365.0,280.5 L366.0,280.5 L366.5,281.0 L367.0,281.5 L368.0,281.5 L369.0,281.5 L370.0,281.5 L371.0,281.5 L372.0,281.5 L372.5,282.0 L373.0,282.5 L374.0,282.5 L375.0,282.5 L376.0,282.5 L376.5,283.0 L377.0,283.5 L378.0,283.5 L379.0,283.5 L380.0,283.5 L381.0,283.5 L381.5,284.0 L382.0,284.5 L383.0,284.5 L384.0,284.5 L385.0,284.5 L385.5,285.0 L386.0,285.5 L387.0,285.5 L388.0,285.5 L389.0,285.5 L389.5,286.0 L390.0,286.5 L391.0,286.5 L392.0,286.5 L392.5,287.0 L393.0,287.5 L394.0,287.5 L395.0,287.5 L396.0,287.5 L396.5,288.0 L397.0,288.5 L398.0,288.5 L399.0,288.5 L399.5,289.0 L400.0,289.5 L401.0,289.5 L402.0,289.5 L402.5,290.0 L403.0,290.5 L404.0,290.5 L405.0,290.5 L405.5,291.0 L406.0,291.5 L407.0,291.5 L407.5,292.0 L408.0,292.5 L409.0,292.5 L410.0,292.5 L410.5,293.0 L411.0,293.5 L412.0,293.5 L413.0,293.5 L413.5,294.0 L414.0,294.5 L415.0,294.5 L415.5,295.0 L416.0,295.5 L417.0,295.5 L418.0,295.5 L418.5,296.0 L419.0,296.5 L420.0,296.5 L420.5,297.0 L421.0,297.5 L422.0,297.5 L422.5,298.0 L423.0,298.5 L424.0,298.5 L424.5,299.0 L425.0,299.5 L426.0,299.5 L427.0,299.5 L427.5,300.0 L428.0,300.5 L429.0,300.5 L429.5,301.0 L430.0,301.5 L431.0,301.5 L431.5,302.0 L432.0,302.5 L432.5,303.0 L433.0,303.5 L434.0,303.5 L434.5,304.0 L435.0,304.5 L436.0,304.5 L436.5,305.0 L437.0,305.5 L438.0,305.5 L438.5,306.0 L439.0,306.5 L439.5,307.0 L440.0,307.5 L441.0,307.5 L441.5,308.0 L442.0,308.5 L442.5,309.0 L443.0,309.5 L444.0,309.5 L444.5,310.0 L445.0,310.5 L446.0,310.5 L446.5,311.0 L447.0,311.5 L447.5,312.0 L448.0,312.5 L448.5,313.0 L449.0,313.5 L450.0,313.5 L450.5,314.0 L451.0,314.5 L451.5,315.0 L452.0,315.5 L452.5,316.0 L453.0,316.5 L454.0,316.5 L454.5,317.0 L455.0,317.5 L455.5,318.0 L456.0,318.5 L456.5,319.0 L457.0,319.5 L457.5,320.0 L458.0,320.5 L458.5,321.0 L459.0,321.5 L460.0,321.5 L460.5,322.0 L461.0,322.5 L461.5,323.0 L462.0,323.5 L462.5,324.0 L463.0,324.5 L463.5,325.0 L464.0,325.5 L464.5,326.0 L465.0,326.5 L465.5,327.0 L466.0,327.5 L466.5,328.0 L467.0,328.5 L467.5,329.0 L468.0,329.5 L468.5,330.0 L469.0,330.5 L469.5,331.0 L470.0,331.5 L470.5,332.0 L470.5,333.0 L471.0,333.5 L471.5,334.0 L472.0,334.5 L472.5,335.0 L473.0,335.5 L473.5,336.0 L473.5,337.0 L474.0,337.5 L474.5,338.0 L475.0,338.5 L475.5,339.0 L475.5,340.0 L476.0,340.5 L476.5,341.0 L477.0,341.5 L477.5,342.0 L477.5,343.0 L478.0,343.5 L478.5,344.0 L479.0,344.5 L479.5,345.0 L479.5,346.0 L480.0,346.5 L480.5,347.0 L480.5,348.0 L481.0,348.5 L481.5,349.0 L481.5,350.0 L481.5,351.0 L482.0,351.5 L482.5,352.0 L482.5,353.0 L483.0,353.5 L483.5,354.0 L483.5,355.0 L483.5,356.0 L484.0,356.5 L484.5,357.0 L484.5,358.0 L485.0,358.5 L485.5,359.0 L485.5,360.0 L485.5,361.0 L486.0,361.5 L486.5,362.0 L486.5,363.0 L486.5,364.0 L486.5,365.0 L487.0,365.5 L487.5,366.0 L487.5,367.0 L487.5,368.0 L487.5,369.0 L487.5,370.0 L487.5,371.0 L487.5,372.0 L488.0,372.5 L488.5,373.0 L488.5,374.0 L488.5,375.0 L488.5,376.0 L488.5,377.0 L488.5,378.0 L488.5,379.0 L488.5,380.0 L488.5,381.0 L488.5,382.0 L488.5,383.0 L488.5,384.0 L488.5,385.0 L488.5,386.0 L488.5,387.0 L488.0,387.5 L487.5,388.0 L487.5,389.0 L487.5,390.0 L487.5,391.0 L487.5,392.0 L487.5,393.0 L487.0,393.5 L486.5,394.0 L486.5,395.0 L486.5,396.0 L486.5,397.0 L486.0,397.5 L485.5,398.0 L485.5,399.0 L485.5,400.0 L485.5,401.0 L485.0,401.5 L484.5,402.0 L484.5,403.0 L484.0,403.5 L483.5,404.0 L483.5,405.0 L483.5,406.0 L483.0,406.5 L482.5,407.0 L482.5,408.0 L482.0,408.5 L481.5,409.0 L481.5,410.0 L481.0,410.5 L480.5,411.0 L480.5,412.0 L480.0,412.5 L479.5,413.0 L479.5,414.0 L479.0,414.5 L478.5,415.0 L478.0,415.5 L477.5,416.0 L477.5,417.0 L477.0,417.5 L476.5,418.0 L476.0,418.5 L475.5,419.0 L475.5,420.0 L475.0,420.5 L474.5,421.0 L474.0,421.5 L473.5,422.0 L473.5,423.0 L473.0,423.5 L472.5,424.0 L472.0,424.5 L471.5,425.0 L471.0,425.5 L470.5,426.0 L470.5,427.0 L470.0,427.5 L469.5,428.0 L469.0,428.5 L468.5,429.0 L468.0,429.5 L467.5,430.0 L467.0,430.5 L466.5,431.0 L466.0,431.5 L465.5,432.0 L465.5,433.0 L465.0,433.5 L464.0,433.5 L463.5,434.0 L463.0,434.5 L462.5,435.0 L462.0,435.5 L461.5,436.0 L461.0,436.5 L460.5,437.0 L460.0,437.5 L459.5,438.0 L459.0,438.5 L458.5,439.0 L458.0,439.5 L457.5,440.0 L457.0,440.5 L456.5,441.0 L456.0,441.5 L455.5,442.0 L455.0,442.5 L454.0,442.5 L453.5,443.0 L453.0,443.5 L452.5,444.0 L452.0,444.5 L451.5,445.0 L451.0,445.5 L450.5,446.0 L450.0,446.5 L449.0,446.5 L448.5,447.0 L448.0,447.5 L447.5,448.0 L447.0,448.5 L446.5,449.0 L446.0,449.5 L445.0,449.5 L444.5,450.0 L444.0,450.5 L443.5,451.0 L443.0,451.5 L442.0,451.5 L441.5,452.0 L441.0,452.5 L440.5,453.0 L440.0,453.5 L439.0,453.5 L438.5,454.0 L438.0,454.5 L437.5,455.0 L437.0,455.5 L436.0,455.5 L435.5,456.0 L435.0,456.5 L434.0,456.5 L433.5,457.0 L433.0,457.5 L432.0,457.5 L431.5,458.0 L431.0,458.5 L430.5,459.0 L430.0,459.5 L429.0,459.5 L428.5,460.0 L428.0,460.5 L427.0,460.5 L426.5,461.0 L426.0,461.5 L425.0,461.5 L424.5,462.0 L424.0,462.5 L423.0,462.5 L422.5,463.0 L422.0,463.5 L421.0,463.5 L420.5,464.0 L420.0,464.5 L419.0,464.5 L418.0,464.5 L417.5,465.0 L417.0,465.5 L416.0,465.5 L415.5,466.0 L415.0,466.5 L414.0,466.5 L413.0,466.5 L412.5,467.0 L412.0,467.5 L411.0,467.5 L410.5,468.0 L410.0,468.5 L409.0,468.5 L408.0,468.5 L407.5,469.0 L407.0,469.5 L406.0,469.5 L405.5,470.0 L405.0,470.5 L404.0,470.5 L403.0,470.5 L402.5,471.0 L402.0,471.5 L401.0,471.5 L400.0,471.5 L399.5,472.0 L399.0,472.5 L398.0,472.5 L397.0,472.5 L396.5,473.0 L396.0,473.5 L395.0,473.5 L394.0,473.5 L393.5,474.0 L393.0,474.5 L392.0,474.5 L391.0,474.5 L390.0,474.5 L389.5,475.0 L389.0,475.5 L388.0,475.5 L387.0,475.5 L386.5,476.0 L386.0,476.5 L385.0,476.5 L384.0,476.5 L383.0,476.5 L382.5,477.0 L382.0,477.5 L381.0,477.5 L380.0,477.5 L379.0,477.5 L378.5,478.0 L378.0,478.5 L377.0,478.5 L376.0,478.5 L375.0,478.5 L374.5,479.0 L374.0,479.5 L373.0,479.5 L372.0,479.5 L371.0,479.5 L370.0,479.5 L369.5,480.0 L369.0,480.5 L368.0,480.5 L367.0,480.5 L366.0,480.5 L365.0,480.5 L364.0,480.5 L363.5,481.0 L363.0,481.5 L362.0,481.5 L361.0,481.5 L360.0,481.5 L359.0,481.5 L358.0,481.5 L357.0,481.5 L356.5,482.0 L356.0,482.5 L355.0,482.5 L354.0,482.5 L353.0,482.5 L352.0,482.5 L351.0,482.5 L350.0,482.5 L349.5,483.0 L349.0,483.5 L348.0,483.5 L347.0,483.5 L346.0,483.5 L345.0,483.5 L344.0,483.5 L343.0,483.5 L342.5,484.0 L342.0,484.5 L341.0,484.5 L340.0,484.5 L339.0,484.5 L338.0,484.5 L337.0,484.5 L336.0,484.5 L335.0,484.5 L334.0,484.5 L333.0,484.5 L332.0,484.5 L331.0,484.5 L330.0,484.5 L329.0,484.5 L328.0,484.5 L327.5,485.0 L327.0,485.5 L326.0,485.5 L325.0,485.5 L324.0,485.5 L323.0,485.5 L322.0,485.5 L321.0,485.5 L320.0,485.5 L319.0,485.5 L318.0,485.5 L317.0,485.5 L316.0,485.5 L315.0,485.5 L314.0,485.5 L313.0,485.5 L312.0,485.5 L311.0,485.5 L310.0,485.5 L309.0,485.5 L308.5,485.0 L308.0,484.5 L307.0,484.5 L306.0,484.5 L305.0,484.5 L304.0,484.5 L303.0,484.5 L302.0,484.5 L301.0,484.5 L300.0,484.5 L299.0,484.5 L298.0,484.5 L297.0,484.5 L296.0,484.5 L295.0,484.5 L294.0,484.5 L293.0,484.5 L292.0,484.5 L291.0,484.5 L290.5,484.0 L290.0,483.5 L289.0,483.5 L288.0,483.5 L287.0,483.5 L286.0,483.5 L285.0,483.5 L284.0,483.5 L283.0,483.5 L282.0,483.5 L281.0,483.5 L280.0,483.5 L279.5,483.0 L279.0,482.5 L278.0,482.5 L277.0,482.5 L276.0,482.5 L275.0,482.5 L274.0,482.5 L273.5,482.0 L273.0,481.5 L272.0,481.5 L271.0,481.5 L270.0,481.5 L269.0,481.5 L268.0,481.5 L267.5,481.0 L267.0,480.5 L266.0,480.5 L265.0,480.5 L264.0,480.5 L263.0,480.5 L262.0,480.5 L261.5,480.0 L261.0,479.5 L260.0,479.5 L259.0,479.5 L258.0,479.5 L257.5,479.0 L257.0,478.5 L256.0,478.5 L255.0,478.5 L254.0,478.5 L253.0,478.5 L252.5,478.0 L252.0,477.5 L251.0,477.5 L250.0,477.5 L249.0,477.5 L248.5,477.0 L248.0,476.5 L247.0,476.5 L246.0,476.5 L245.0,476.5 L244.5,476.0 L244.0,475.5 L243.0,475.5 L242.0,475.5 L241.5,475.0 L241.0,474.5 L240.0,474.5 L239.0,474.5 L238.5,474.0 L238.0,473.5 L237.0,473.5 L236.0,473.5 L235.5,473.0 L235.0,472.5 L234.0,472.5 L233.0,472.5 L232.5,472.0 L232.0,471.5 L231.0,471.5 L230.0,471.5 L229.5,471.0 L229.0,470.5 L228.0,470.5 L227.0,470.5 L226.5,470.0 L226.0,469.5 L225.0,469.5 L224.0,469.5 L223.5,469.0 L223.0,468.5 L222.0,468.5 L221.5,468.0 L221.0,467.5 L220.0,467.5 L219.0,467.5 L218.5,467.0 L218.0,466.5 L217.0,466.5 L216.5,466.0 L216.0,465.5 L215.0,465.5 L214.0,465.5 L213.5,465.0 L213.0,464.5 L212.0,464.5 L211.5,464.0 L211.0,463.5 L210.5,463.0 L210.0,462.5 L209.0,462.5 L208.0,462.5 L207.5,462.0 L207.0,461.5 L206.5,461.0 L206.0,460.5 L205.0,460.5 L204.5,460.0 L204.0,459.5 L203.0,459.5 L202.5,459.0 L202.0,458.5 L201.0,458.5 L200.5,458.0 L200.0,457.5 L199.0,457.5 L198.5,457.0 L198.0,456.5 L197.0,456.5 L196.5,456.0 L196.0,455.5 L195.5,455.0 L195.0,454.5 L194.0,454.5 L193.5,454.0 L193.0,453.5 L192.5,453.0 L192.0,452.5 L191.0,452.5 L190.5,452.0 L190.0,451.5 L189.0,451.5 L188.5,451.0 L188.0,450.5 L187.5,450.0 L187.0,449.5 L186.5,449.0 L186.0,448.5 L185.5,448.0 L185.0,447.5 L184.0,447.5 L183.5,447.0 L183.0,446.5 L182.5,446.0 L182.0,445.5 L181.5,445.0 L181.0,444.5 L180.0,444.5 L179.5,444.0 L179.0,443.5 L178.5,443.0 L178.0,442.5 L177.5,442.0 L177.0,441.5 L176.5,441.0 L176.0,440.5 L175.5,440.0 L175.0,439.5 L174.0,439.5 L173.5,439.0 L173.0,438.5 L172.5,438.0 L172.0,437.5 L171.5,437.0 L171.0,436.5 L170.5,436.0 L170.0,435.5 L169.5,435.0 L169.0,434.5 L168.5,434.0 L168.0,433.5 L167.5,433.0 L167.0,432.5 L166.5,432.0 L166.5,431.0 L166.0,430.5 L165.5,430.0 L165.0,429.5 L164.5,429.0 L164.0,428.5 L163.5,428.0 L163.0,427.5 L162.5,427.0 L162.5,426.0 L162.0,425.5 L161.5,425.0 L161.0,424.5 L160.5,424.0 L160.0,423.5 L159.5,423.0 L159.5,422.0 L159.0,421.5 L158.5,421.0 L158.0,420.5 L157.5,420.0 L157.5,419.0 L157.0,418.5 L156.5,418.0 L156.5,417.0 L156.0,416.5 L155.5,416.0 L155.5,415.0 L155.0,414.5 L154.5,414.0 L154.5,413.0 L154.0,412.5 L153.5,412.0 L153.5,411.0 L153.0,410.5 L152.5,410.0 L152.5,409.0 L152.0,408.5 L151.5,408.0 L151.5,407.0 L151.5,406.0 L151.0,405.5 L150.5,405.0 L150.5,404.0 L150.0,403.5 L149.5,403.0 L149.5,402.0 L149.5,401.0 L149.5,400.0 L149.0,399.5 L148.5,399.0 L148.5,398.0 L148.5,397.0 L148.0,396.5 L147.5,396.0 L147.5,395.0 L147.5,394.0 L147.5,393.0 L147.5,392.0 L147.5,391.0 L147.5,390.0 L147.0,389.5 L146.5,389.0 L146.5,388.0 L146.5,387.0 L146.5,386.0 L146.5,385.0 L146.5,384.0 L146.5,383.0 L146.5,382.0 L146.5,381.0 L146.5,380.0 L146.5,379.0 L146.5,378.0 L146.5,377.0 L146.5,376.0 L146.5,375.0 L147.0,374.5 L147.5,374.0 L147.5,373.0 L147.5,372.0 L147.5,371.0 L147.5,370.0 L147.5,369.0 L147.5,368.0 L147.5,367.0 L148.0,366.5 L148.5,366.0 L148.5,365.0 L148.5,364.0 L149.0,363.5 L149.5,363.0 L149.5,362.0 L149.5,361.0 L149.5,360.0 L150.0,359.5 L150.5,359.0 L150.5,358.0 L150.5,357.0 L151.0,356.5 L151.5,356.0 L151.5,355.0 L151.5,354.0 L152.0,353.5 L152.5,353.0 L152.5,352.0 L153.0,351.5 L153.5,351.0 L153.5,350.0 L154.0,349.5 L154.5,349.0 L154.5,348.0 L155.0,347.5 L155.5,347.0 L155.5,346.0 L156.0,345.5 L156.5,345.0 L157.0,344.5 L157.5,344.0 L157.5,343.0 L158.0,342.5 L158.5,342.0 L159.0,341.5 L159.5,341.0 L159.5,340.0 L160.0,339.5 L160.5,339.0 L161.0,338.5 L161.5,338.0 L162.0,337.5 L162.5,337.0 L162.5,336.0 L163.0,335.5 L163.5,335.0 L164.0,334.5 L164.5,334.0 L165.0,333.5 L165.5,333.0 L165.5,332.0 L166.0,331.5 L166.5,331.0 L167.0,330.5 L167.5,330.0 L168.0,329.5 L168.5,329.0 L169.0,328.5 L169.5,328.0 L170.0,327.5 L170.5,327.0 L171.0,326.5 L171.5,326.0 L172.0,325.5 L172.5,325.0 L173.0,324.5 L173.5,324.0 L174.0,323.5 L175.0,323.5 L175.5,323.0 L175.5,322.0 L176.0,321.5 L177.0,321.5 L177.5,321.0 L178.0,320.5 L178.5,320.0 L179.0,319.5 L179.5,319.0 L180.0,318.5 L180.5,318.0 L181.0,317.5 L182.0,317.5 L182.5,317.0 L183.0,316.5 L183.5,316.0 L184.0,315.5 L184.5,315.0 L185.0,314.5 L185.5,314.0 L186.0,313.5 L187.0,313.5 L187.5,313.0 L188.0,312.5 L188.5,312.0 L189.0,311.5 L190.0,311.5 L190.5,311.0 L191.0,310.5 L191.5,310.0 L192.0,309.5 L193.0,309.5 L193.5,309.0 L194.0,308.5 L194.5,308.0 L195.0,307.5 L196.0,307.5 L196.5,307.0 L197.0,306.5 L198.0,306.5 L198.5,306.0 L199.0,305.5 L199.5,305.0 L200.0,304.5 L201.0,304.5 L201.5,304.0 L202.0,303.5 L203.0,303.5 L203.5,303.0 L204.0,302.5 L205.0,302.5 L206.0,302.5 L206.5,302.0 L207.0,301.5 L207.5,301.0 L208.0,300.5 L209.0,300.5 L209.5,300.0 L210.0,299.5 L211.0,299.5 L211.5,299.0 L212.0,298.5 L213.0,298.5 L213.5,298.0 L214.0,297.5 L215.0,297.5 L216.0,297.5 L216.5,297.0 L217.0,296.5 L218.0,296.5 L218.5,296.0 L219.0,295.5 L220.0,295.5 L220.5,295.0 L221.0,294.5 L222.0,294.5 L223.0,294.5 L223.5,294.0 L224.0,293.5 L225.0,293.5 L225.5,293.0 L226.0,292.5 L227.0,292.5 L228.0,292.5 L228.5,292.0 L229.0,291.5 L230.0,291.5 L230.5,291.0 L231.0,290.5 L232.0,290.5 L233.0,290.5 L233.5,290.0 L234.0,289.5 L235.0,289.5 L236.0,289.5 L237.0,289.5 L237.5,289.0 L238.0,288.5 L239.0,288.5 L240.0,288.5 L240.5,288.0 L241.0,287.5 L242.0,287.5 L243.0,287.5 L243.5,287.0 L244.0,286.5 L245.0,286.5 L246.0,286.5 L247.0,286.5 L247.5,286.0 L248.0,285.5 L249.0,285.5 L250.0,285.5 L251.0,285.5 L251.5,285.0 L252.0,284.5 L253.0,284.5 L254.0,284.5 L255.0,284.5 L255.5,284.0 L256.0,283.5 L257.0,283.5 L258.0,283.5 L259.0,283.5 L259.5,283.0 L260.0,282.5 L261.0,282.5 L262.0,282.5 L263.0,282.5 L264.0,282.5 L265.0,282.5 L265.5,282.0 L266.0,281.5 L267.0,281.5 L268.0,281.5 L269.0,281.5 L270.0,281.5 L270.5,281.0 L271.0,280.5 L272.0,280.5 L273.0,280.5 L274.0,280.5 L275.0,280.5 L276.0,280.5 L276.5,280.0 L277.0,279.5 L278.0,279.5 L279.0,279.5 L280.0,279.5 L281.0,279.5 L282.0,279.5 L283.0,279.5 L284.0,279.5 L284.5,279.0 L285.0,278.5 L286.0,278.5 L287.0,278.5 L288.0,278.5 L289.0,278.5 L290.0,278.5 L291.0,278.5 L292.0,278.5 L293.0,278.5 L293.5,278.0 L294.0,277.5 L295.0,277.5 L296.0,277.5 L297.0,277.5 L298.0,277.5 L299.0,277.5 L300.0,277.5 L301.0,277.5 L302.0,277.5 L303.0,277.5 L304.0,277.5 L305.0,277.5 L306.0,277.5 L307.0,277.5 L308.0,277.5 L309.0,277.5 L310.0,277.5 L311.0,277.5 L311.5,277.0 L312.0,276.5 Z M288.0,302.5 L287.5,303.0 L287.0,303.5 L286.0,303.5 L285.0,303.5 L284.0,303.5 L283.5,304.0 L283.0,304.5 L282.0,304.5 L281.5,305.0 L281.0,305.5 L280.5,306.0 L280.0,306.5 L279.5,307.0 L279.0,307.5 L278.5,308.0 L278.0,308.5 L277.0,308.5 L276.5,309.0 L276.0,309.5 L275.5,310.0 L275.0,310.5 L274.0,310.5 L273.5,311.0 L273.0,311.5 L272.5,312.0 L272.0,312.5 L271.5,313.0 L271.0,313.5 L270.5,314.0 L270.0,314.5 L269.0,314.5 L268.5,315.0 L268.5,316.0 L268.0,316.5 L267.0,316.5 L266.5,317.0 L266.0,317.5 L265.5,318.0 L265.0,318.5 L264.5,319.0 L264.0,319.5 L263.5,320.0 L263.0,320.5 L262.0,320.5 L261.5,321.0 L261.0,321.5 L260.5,322.0 L260.0,322.5 L259.5,323.0 L259.0,323.5 L258.0,323.5 L257.5,324.0 L257.0,324.5 L256.5,325.0 L256.0,325.5 L255.5,326.0 L255.0,326.5 L254.0,326.5 L253.5,327.0 L253.0,327.5 L252.5,328.0 L252.0,328.5 L251.5,329.0 L251.0,329.5 L250.0,329.5 L249.5,330.0 L249.0,330.5 L248.5,331.0 L248.0,331.5 L247.5,332.0 L247.0,332.5 L246.5,333.0 L246.0,333.5 L245.5,334.0 L245.0,334.5 L244.5,335.0 L244.0,335.5 L243.5,336.0 L243.0,336.5 L242.0,336.5 L241.5,337.0 L241.0,337.5 L240.5,338.0 L240.0,338.5 L239.5,339.0 L239.0,339.5 L238.5,340.0 L238.0,340.5 L237.0,340.5 L236.5,341.0 L236.0,341.5 L235.5,342.0 L235.0,342.5 L234.0,342.5 L233.5,343.0 L233.0,343.5 L232.5,344.0 L232.0,344.5 L231.0,344.5 L230.5,345.0 L230.0,345.5 L229.5,346.0 L229.0,346.5 L228.5,347.0 L228.0,347.5 L227.5,348.0 L227.0,348.5 L226.5,349.0 L226.0,349.5 L225.5,350.0 L225.0,350.5 L224.0,350.5 L223.5,351.0 L223.0,351.5 L222.5,352.0 L222.0,352.5 L221.5,353.0 L221.0,353.5 L220.5,354.0 L220.0,354.5 L219.0,354.5 L218.5,355.0 L218.0,355.5 L217.5,356.0 L217.0,356.5 L216.5,357.0 L216.0,357.5 L215.0,357.5 L214.5,358.0 L214.0,358.5 L213.5,359.0 L213.0,359.5 L212.5,360.0 L212.0,360.5 L211.0,360.5 L210.5,361.0 L210.0,361.5 L209.5,362.0 L209.0,362.5 L208.5,363.0 L208.0,363.5 L207.5,364.0 L207.0,364.5 L206.5,365.0 L206.0,365.5 L205.5,366.0 L205.0,366.5 L204.0,366.5 L203.5,367.0 L203.0,367.5 L202.5,368.0 L202.0,368.5 L201.5,369.0 L201.0,369.5 L200.0,369.5 L199.5,370.0 L199.0,370.5 L198.5,371.0 L198.0,371.5 L197.5,372.0 L197.0,372.5 L196.5,373.0 L196.0,373.5 L195.5,374.0 L195.5,375.0 L195.0,375.5 L194.5,376.0 L194.5,377.0 L194.0,377.5 L193.5,378.0 L193.5,379.0 L193.5,380.0 L193.5,381.0 L193.5,382.0 L193.5,383.0 L194.0,383.5 L194.5,384.0 L194.5,385.0 L194.5,386.0 L195.0,386.5 L195.5,387.0 L195.5,388.0 L196.0,388.5 L196.5,389.0 L197.0,389.5 L197.5,390.0 L198.0,390.5 L198.5,391.0 L199.0,391.5 L199.5,392.0 L200.0,392.5 L200.5,393.0 L201.0,393.5 L202.0,393.5 L203.0,393.5 L203.5,394.0 L204.0,394.5 L205.0,394.5 L206.0,394.5 L207.0,394.5 L208.0,394.5 L209.0,394.5 L210.0,394.5 L210.5,394.0 L211.0,393.5 L212.0,393.5 L213.0,393.5 L213.5,393.0 L214.0,392.5 L215.0,392.5 L215.5,392.0 L216.0,391.5 L216.5,391.0 L217.0,390.5 L217.5,390.0 L218.0,389.5 L219.0,389.5 L219.5,389.0 L220.0,388.5 L220.5,388.0 L221.0,387.5 L221.5,387.0 L222.0,386.5 L223.0,386.5 L223.5,386.0 L224.0,385.5 L224.5,385.0 L225.0,384.5 L225.5,384.0 L226.0,383.5 L226.5,383.0 L227.0,382.5 L227.5,382.0 L228.0,381.5 L228.5,381.0 L229.0,380.5 L230.0,380.5 L230.5,380.0 L231.0,379.5 L231.5,379.0 L232.0,378.5 L232.5,378.0 L233.0,377.5 L233.5,377.0 L234.0,376.5 L235.0,376.5 L235.5,376.0 L236.0,375.5 L236.5,375.0 L237.0,374.5 L237.5,374.0 L238.0,373.5 L239.0,373.5 L239.5,373.0 L240.0,372.5 L240.5,372.0 L241.0,371.5 L241.5,371.0 L242.0,370.5 L242.5,370.0 L243.0,369.5 L243.5,369.0 L244.0,368.5 L245.0,368.5 L245.5,368.0 L246.0,367.5 L246.5,367.0 L247.0,366.5 L247.5,366.0 L248.0,365.5 L249.0,365.5 L249.5,365.0 L250.0,364.5 L250.5,364.0 L251.0,363.5 L251.5,363.0 L252.0,362.5 L252.5,362.0 L253.0,361.5 L254.0,361.5 L254.5,361.0 L255.0,360.5 L255.5,360.0 L256.0,359.5 L256.5,359.0 L257.0,358.5 L257.5,358.0 L258.0,357.5 L259.0,357.5 L259.5,357.0 L260.0,356.5 L260.5,356.0 L261.0,355.5 L261.5,355.0 L262.0,354.5 L262.5,354.0 L263.0,353.5 L264.0,353.5 L264.5,353.0 L265.0,352.5 L265.5,352.0 L266.0,351.5 L266.5,351.0 L267.0,350.5 L268.0,350.5 L268.5,350.0 L268.5,349.0 L269.0,348.5 L270.0,348.5 L270.5,348.0 L271.0,347.5 L271.5,347.0 L272.0,346.5 L272.5,346.0 L273.0,345.5 L273.5,345.0 L274.0,344.5 L275.0,344.5 L275.5,344.0 L276.0,343.5 L276.5,343.0 L277.0,342.5 L277.5,342.0 L278.0,341.5 L279.0,341.5 L279.5,341.0 L280.0,340.5 L280.5,340.0 L281.0,339.5 L281.5,339.0 L282.0,338.5 L283.0,338.5 L283.5,338.0 L284.0,337.5 L284.5,337.0 L285.0,336.5 L285.5,336.0 L286.0,335.5 L286.5,335.0 L287.0,334.5 L288.0,334.5 L288.5,334.0 L289.0,333.5 L289.5,333.0 L290.0,332.5 L290.5,332.0 L291.0,331.5 L292.0,331.5 L292.5,331.0 L293.0,330.5 L293.5,330.0 L294.0,329.5 L294.5,329.0 L295.0,328.5 L295.5,328.0 L296.0,327.5 L296.5,327.0 L297.0,326.5 L297.5,326.0 L298.0,325.5 L299.0,325.5 L299.5,325.0 L300.0,324.5 L300.5,324.0 L301.0,323.5 L301.5,323.0 L301.5,322.0 L302.0,321.5 L302.5,321.0 L302.5,320.0 L302.5,319.0 L302.5,318.0 L302.5,317.0 L302.5,316.0 L302.5,315.0 L302.5,314.0 L302.5,313.0 L302.5,312.0 L302.0,311.5 L301.5,311.0 L301.5,310.0 L301.0,309.5 L300.5,309.0 L300.5,308.0 L300.0,307.5 L299.5,307.0 L299.0,306.5 L298.5,306.0 L298.0,305.5 L297.0,305.5 L296.5,305.0 L296.0,304.5 L295.5,304.0 L295.0,303.5 L294.0,303.5 L293.0,303.5 L292.0,303.5 L291.5,303.0 L291.0,302.5 L290.0,302.5 L289.0,302.5 L288.0,302.5 Z M364.0,316.5 L363.5,317.0 L363.0,317.5 L362.0,317.5 L361.0,317.5 L360.5,318.0 L360.0,318.5 L359.5,319.0 L359.0,319.5 L358.0,319.5 L357.5,320.0 L357.0,320.5 L356.5,321.0 L356.0,321.5 L355.5,322.0 L355.0,322.5 L354.5,323.0 L354.0,323.5 L353.0,323.5 L352.5,324.0 L352.0,324.5 L351.5,325.0 L351.0,325.5 L350.5,326.0 L350.0,326.5 L349.5,327.0 L349.0,327.5 L348.5,328.0 L348.0,328.5 L347.0,328.5 L346.5,329.0 L346.0,329.5 L345.5,330.0 L345.0,330.5 L344.5,331.0 L344.0,331.5 L343.0,331.5 L342.5,332.0 L342.0,332.5 L341.5,333.0 L341.0,333.5 L340.5,334.0 L340.0,334.5 L339.5,335.0 L339.0,335.5 L338.5,336.0 L338.0,336.5 L337.5,337.0 L337.0,337.5 L336.0,337.5 L335.5,338.0 L335.0,338.5 L334.5,339.0 L334.0,339.5 L333.5,340.0 L333.0,340.5 L332.0,340.5 L331.5,341.0 L331.0,341.5 L330.5,342.0 L330.0,342.5 L329.5,343.0 L329.0,343.5 L328.0,343.5 L327.5,344.0 L327.0,344.5 L326.5,345.0 L326.0,345.5 L325.5,346.0 L325.0,346.5 L324.5,347.0 L324.0,347.5 L323.0,347.5 L322.5,348.0 L322.0,348.5 L321.5,349.0 L321.0,349.5 L320.5,350.0 L320.0,350.5 L319.5,351.0 L319.0,351.5 L318.5,352.0 L318.0,352.5 L317.0,352.5 L316.5,353.0 L316.0,353.5 L315.5,354.0 L315.0,354.5 L314.5,355.0 L314.0,355.5 L313.5,356.0 L313.0,356.5 L312.5,357.0 L312.0,357.5 L311.0,357.5 L310.5,358.0 L310.0,358.5 L309.5,359.0 L309.0,359.5 L308.5,360.0 L308.0,360.5 L307.0,360.5 L306.5,361.0 L306.0,361.5 L305.5,362.0 L305.0,362.5 L304.5,363.0 L304.0,363.5 L303.5,364.0 L303.0,364.5 L302.0,364.5 L301.5,365.0 L301.0,365.5 L300.5,366.0 L300.0,366.5 L299.5,367.0 L299.0,367.5 L298.5,368.0 L298.0,368.5 L297.5,369.0 L297.0,369.5 L296.0,369.5 L295.5,370.0 L295.0,370.5 L294.5,371.0 L294.0,371.5 L293.5,372.0 L293.0,372.5 L292.5,373.0 L292.0,373.5 L291.0,373.5 L290.5,374.0 L290.0,374.5 L289.5,375.0 L289.0,375.5 L288.5,376.0 L288.0,376.5 L287.0,376.5 L286.5,377.0 L286.0,377.5 L285.5,378.0 L285.0,378.5 L284.5,379.0 L284.0,379.5 L283.5,380.0 L283.0,380.5 L282.0,380.5 L281.5,381.0 L281.0,381.5 L280.5,382.0 L280.0,382.5 L279.5,383.0 L279.0,383.5 L278.5,384.0 L278.0,384.5 L277.0,384.5 L276.5,385.0 L276.0,385.5 L275.5,386.0 L275.0,386.5 L274.5,387.0 L274.0,387.5 L273.5,388.0 L273.0,388.5 L272.5,389.0 L272.0,389.5 L271.0,389.5 L270.5,390.0 L270.0,390.5 L269.5,391.0 L269.0,391.5 L268.5,392.0 L268.0,392.5 L267.0,392.5 L266.5,393.0 L266.0,393.5 L265.5,394.0 L265.0,394.5 L264.5,395.0 L264.0,395.5 L263.5,396.0 L263.0,396.5 L262.0,396.5 L261.5,397.0 L261.0,397.5 L260.5,398.0 L260.0,398.5 L259.5,399.0 L259.0,399.5 L258.5,400.0 L258.0,400.5 L257.5,401.0 L257.0,401.5 L256.5,402.0 L256.0,402.5 L255.0,402.5 L254.5,403.0 L254.0,403.5 L253.5,404.0 L253.0,404.5 L252.5,405.0 L252.0,405.5 L251.0,405.5 L250.5,406.0 L250.0,406.5 L249.5,407.0 L249.0,407.5 L248.5,408.0 L248.0,408.5 L247.5,409.0 L247.5,410.0 L247.0,410.5 L246.5,411.0 L246.5,412.0 L246.5,413.0 L246.0,413.5 L245.5,414.0 L245.5,415.0 L245.5,416.0 L245.5,417.0 L245.5,418.0 L245.5,419.0 L245.5,420.0 L246.0,420.5 L246.5,421.0 L246.5,422.0 L247.0,422.5 L247.5,423.0 L247.5,424.0 L248.0,424.5 L248.5,425.0 L249.0,425.5 L249.5,426.0 L250.0,426.5 L250.5,427.0 L251.0,427.5 L252.0,427.5 L252.5,428.0 L253.0,428.5 L254.0,428.5 L254.5,429.0 L255.0,429.5 L256.0,429.5 L257.0,429.5 L258.0,429.5 L259.0,429.5 L260.0,429.5 L261.0,429.5 L262.0,429.5 L263.0,429.5 L264.0,429.5 L264.5,429.0 L265.0,428.5 L265.5,428.0 L266.0,427.5 L267.0,427.5 L267.5,427.0 L268.0,426.5 L268.5,426.0 L269.0,425.5 L269.5,425.0 L270.0,424.5 L271.0,424.5 L271.5,424.0 L272.0,423.5 L272.5,423.0 L273.0,422.5 L273.5,422.0 L274.0,421.5 L274.5,421.0 L275.0,420.5 L275.5,420.0 L276.0,419.5 L277.0,419.5 L277.5,419.0 L278.0,418.5 L278.5,418.0 L279.0,417.5 L279.5,417.0 L280.0,416.5 L281.0,416.5 L281.5,416.0 L282.0,415.5 L282.5,415.0 L283.0,414.5 L283.5,414.0 L284.0,413.5 L284.5,413.0 L285.0,412.5 L285.5,412.0 L286.0,411.5 L287.0,411.5 L287.5,411.0 L288.0,410.5 L288.5,410.0 L289.0,409.5 L289.5,409.0 L290.0,408.5 L291.0,408.5 L291.5,408.0 L292.0,407.5 L292.5,407.0 L293.0,406.5 L293.5,406.0 L294.0,405.5 L295.0,405.5 L295.5,405.0 L296.0,404.5 L296.5,404.0 L297.0,403.5 L297.5,403.0 L298.0,402.5 L299.0,402.5 L299.5,402.0 L300.0,401.5 L300.5,401.0 L301.0,400.5 L301.5,400.0 L302.0,399.5 L302.5,399.0 L303.0,398.5 L303.5,398.0 L304.0,397.5 L304.5,397.0 L305.0,396.5 L306.0,396.5 L306.5,396.0 L307.0,395.5 L307.5,395.0 L308.0,394.5 L308.5,394.0 L309.0,393.5 L309.5,393.0 L310.0,392.5 L311.0,392.5 L311.5,392.0 L312.0,391.5 L312.5,391.0 L313.0,390.5 L314.0,390.5 L314.5,390.0 L315.0,389.5 L315.5,389.0 L316.0,388.5 L316.5,388.0 L317.0,387.5 L317.5,387.0 L318.0,386.5 L319.0,386.5 L319.5,386.0 L319.5,385.0 L320.0,384.5 L321.0,384.5 L321.5,384.0 L322.0,383.5 L322.5,383.0 L323.0,382.5 L323.5,382.0 L324.0,381.5 L325.0,381.5 L325.5,381.0 L326.0,380.5 L326.5,380.0 L327.0,379.5 L327.5,379.0 L328.0,378.5 L328.5,378.0 L329.0,377.5 L330.0,377.5 L330.5,377.0 L331.0,376.5 L331.5,376.0 L332.0,375.5 L332.5,375.0 L333.0,374.5 L333.5,374.0 L334.0,373.5 L335.0,373.5 L335.5,373.0 L336.0,372.5 L336.5,372.0 L337.0,371.5 L337.5,371.0 L338.0,370.5 L338.5,370.0 L339.0,369.5 L339.5,369.0 L340.0,368.5 L341.0,368.5 L341.5,368.0 L342.0,367.5 L342.5,367.0 L343.0,366.5 L343.5,366.0 L344.0,365.5 L344.5,365.0 L345.0,364.5 L346.0,364.5 L346.5,364.0 L347.0,363.5 L347.5,363.0 L348.0,362.5 L348.5,362.0 L349.0,361.5 L350.0,361.5 L350.5,361.0 L351.0,360.5 L351.5,360.0 L352.0,359.5 L352.5,359.0 L353.0,358.5 L353.5,358.0 L354.0,357.5 L354.5,357.0 L355.0,356.5 L356.0,356.5 L356.5,356.0 L357.0,355.5 L357.5,355.0 L358.0,354.5 L358.5,354.0 L359.0,353.5 L359.5,353.0 L360.0,352.5 L361.0,352.5 L361.5,352.0 L362.0,351.5 L362.5,351.0 L363.0,350.5 L363.5,350.0 L364.0,349.5 L365.0,349.5 L365.5,349.0 L366.0,348.5 L366.5,348.0 L367.0,347.5 L367.5,347.0 L368.0,346.5 L368.5,346.0 L369.0,345.5 L369.5,345.0 L370.0,344.5 L370.5,344.0 L371.0,343.5 L372.0,343.5 L372.5,343.0 L373.0,342.5 L373.5,342.0 L374.0,341.5 L374.5,341.0 L375.0,340.5 L375.5,340.0 L376.0,339.5 L377.0,339.5 L377.5,339.0 L378.0,338.5 L378.5,338.0 L378.5,337.0 L379.0,336.5 L379.5,336.0 L380.0,335.5 L380.5,335.0 L380.5,334.0 L381.0,333.5 L381.5,333.0 L381.5,332.0 L381.5,331.0 L381.5,330.0 L381.5,329.0 L381.5,328.0 L381.5,327.0 L381.5,326.0 L381.0,325.5 L380.5,325.0 L380.5,324.0 L380.0,323.5 L379.5,323.0 L379.5,322.0 L379.0,321.5 L378.5,321.0 L378.0,320.5 L377.5,320.0 L377.0,319.5 L376.5,319.0 L376.0,318.5 L375.5,318.0 L375.0,317.5 L374.0,317.5 L373.5,317.0 L373.0,316.5 L372.0,316.5 L371.0,316.5 L370.0,316.5 L369.0,316.5 L368.0,316.5 L367.0,316.5 L366.0,316.5 L365.0,316.5 L364.0,316.5 Z M422.0,347.5 L421.5,348.0 L421.0,348.5 L420.0,348.5 L419.0,348.5 L418.5,349.0 L418.0,349.5 L417.5,350.0 L417.0,350.5 L416.0,350.5 L415.5,351.0 L415.0,351.5 L414.5,352.0 L414.0,352.5 L413.5,353.0 L413.0,353.5 L412.0,353.5 L411.5,354.0 L411.0,354.5 L410.5,355.0 L410.0,355.5 L409.5,356.0 L409.0,356.5 L408.5,357.0 L408.0,357.5 L407.0,357.5 L406.5,358.0 L406.0,358.5 L405.5,359.0 L405.0,359.5 L404.5,360.0 L404.0,360.5 L403.0,360.5 L402.5,361.0 L402.0,361.5 L401.5,362.0 L401.0,362.5 L400.5,363.0 L400.0,363.5 L399.5,364.0 L399.0,364.5 L398.5,365.0 L398.0,365.5 L397.5,366.0 L397.0,366.5 L396.0,366.5 L395.5,367.0 L395.0,367.5 L394.5,368.0 L394.0,368.5 L393.5,369.0 L393.0,369.5 L392.5,370.0 L392.0,370.5 L391.0,370.5 L390.5,371.0 L390.0,371.5 L389.5,372.0 L389.0,372.5 L388.5,373.0 L388.0,373.5 L387.0,373.5 L386.5,374.0 L386.0,374.5 L385.5,375.0 L385.0,375.5 L384.5,376.0 L384.0,376.5 L383.5,377.0 L383.0,377.5 L382.0,377.5 L381.5,378.0 L381.0,378.5 L380.5,379.0 L380.0,379.5 L379.5,380.0 L379.0,380.5 L378.5,381.0 L378.0,381.5 L377.0,381.5 L376.5,382.0 L376.0,382.5 L375.5,383.0 L375.0,383.5 L374.5,384.0 L374.0,384.5 L373.5,385.0 L373.0,385.5 L372.0,385.5 L371.5,386.0 L371.0,386.5 L370.5,387.0 L370.0,387.5 L369.5,388.0 L369.0,388.5 L368.5,389.0 L368.0,389.5 L367.5,390.0 L367.0,390.5 L366.0,390.5 L365.5,391.0 L365.0,391.5 L364.5,392.0 L364.0,392.5 L363.0,392.5 L362.5,393.0 L362.0,393.5 L361.5,394.0 L361.0,394.5 L360.5,395.0 L360.0,395.5 L359.5,396.0 L359.0,396.5 L358.5,397.0 L358.0,397.5 L357.0,397.5 L356.5,398.0 L356.0,398.5 L355.5,399.0 L355.0,399.5 L354.5,400.0 L354.0,400.5 L353.5,401.0 L353.0,401.5 L352.0,401.5 L351.5,402.0 L351.0,402.5 L350.5,403.0 L350.0,403.5 L349.5,404.0 L349.0,404.5 L348.0,404.5 L347.5,405.0 L347.0,405.5 L346.5,406.0 L346.0,406.5 L345.5,407.0 L345.0,407.5 L344.5,408.0 L344.0,408.5 L343.5,409.0 L343.0,409.5 L342.5,410.0 L342.0,410.5 L341.0,410.5 L340.5,411.0 L340.0,411.5 L339.5,412.0 L339.0,412.5 L338.5,413.0 L338.0,413.5 L337.5,414.0 L337.0,414.5 L336.0,414.5 L335.5,415.0 L335.0,415.5 L334.5,416.0 L334.0,416.5 L333.5,417.0 L333.0,417.5 L332.5,418.0 L332.0,418.5 L331.0,418.5 L330.5,419.0 L330.0,419.5 L329.5,420.0 L329.0,420.5 L328.5,421.0 L328.0,421.5 L327.0,421.5 L326.5,422.0 L326.0,422.5 L325.5,423.0 L325.0,423.5 L324.5,424.0 L324.0,424.5 L323.0,424.5 L322.5,425.0 L322.0,425.5 L321.5,426.0 L321.0,426.5 L320.5,427.0 L320.0,427.5 L319.5,428.0 L319.0,428.5 L318.5,429.0 L318.5,430.0 L318.0,430.5 L317.5,431.0 L317.5,432.0 L317.5,433.0 L317.0,433.5 L316.5,434.0 L316.5,435.0 L316.5,436.0 L316.5,437.0 L316.5,438.0 L316.5,439.0 L316.5,440.0 L317.0,440.5 L317.5,441.0 L317.5,442.0 L318.0,442.5 L318.5,443.0 L318.5,444.0 L319.0,444.5 L319.5,445.0 L320.0,445.5 L320.5,446.0 L321.0,446.5 L321.5,447.0 L322.0,447.5 L322.5,448.0 L323.0,448.5 L324.0,448.5 L324.5,449.0 L325.0,449.5 L326.0,449.5 L327.0,449.5 L327.5,450.0 L328.0,450.5 L329.0,450.5 L330.0,450.5 L331.0,450.5 L331.5,450.0 L332.0,449.5 L333.0,449.5 L334.0,449.5 L335.0,449.5 L335.5,449.0 L336.0,448.5 L337.0,448.5 L337.5,448.0 L338.0,447.5 L338.5,447.0 L339.0,446.5 L339.5,446.0 L340.0,445.5 L341.0,445.5 L341.5,445.0 L342.0,444.5 L342.5,444.0 L343.0,443.5 L343.5,443.0 L344.0,442.5 L344.5,442.0 L345.0,441.5 L346.0,441.5 L346.5,441.0 L347.0,440.5 L347.5,440.0 L348.0,439.5 L348.5,439.0 L349.0,438.5 L349.5,438.0 L350.0,437.5 L351.0,437.5 L351.5,437.0 L352.0,436.5 L352.5,436.0 L353.0,435.5 L353.5,435.0 L354.0,434.5 L354.5,434.0 L355.0,433.5 L356.0,433.5 L356.5,433.0 L357.0,432.5 L357.5,432.0 L358.0,431.5 L358.5,431.0 L359.0,430.5 L360.0,430.5 L360.5,430.0 L361.0,429.5 L361.5,429.0 L362.0,428.5 L362.5,428.0 L363.0,427.5 L363.5,427.0 L364.0,426.5 L364.5,426.0 L365.0,425.5 L366.0,425.5 L366.5,425.0 L367.0,424.5 L367.5,424.0 L368.0,423.5 L368.5,423.0 L369.0,422.5 L369.5,422.0 L370.0,421.5 L371.0,421.5 L371.5,421.0 L372.0,420.5 L372.5,420.0 L373.0,419.5 L373.5,419.0 L374.0,418.5 L374.5,418.0 L375.0,417.5 L376.0,417.5 L376.5,417.0 L377.0,416.5 L377.5,416.0 L378.0,415.5 L378.5,415.0 L379.0,414.5 L379.5,414.0 L380.0,413.5 L381.0,413.5 L381.5,413.0 L381.5,412.0 L382.0,411.5 L383.0,411.5 L383.5,411.0 L384.0,410.5 L384.5,410.0 L385.0,409.5 L385.5,409.0 L386.0,408.5 L387.0,408.5 L387.5,408.0 L388.0,407.5 L388.5,407.0 L389.0,406.5 L390.0,406.5 L390.5,406.0 L391.0,405.5 L391.5,405.0 L392.0,404.5 L392.5,404.0 L393.0,403.5 L393.5,403.0 L394.0,402.5 L395.0,402.5 L395.5,402.0 L396.0,401.5 L396.5,401.0 L397.0,400.5 L397.5,400.0 L398.0,399.5 L399.0,399.5 L399.5,399.0 L400.0,398.5 L400.5,398.0 L401.0,397.5 L401.5,397.0 L402.0,396.5 L402.5,396.0 L403.0,395.5 L403.5,395.0 L404.0,394.5 L404.5,394.0 L405.0,393.5 L406.0,393.5 L406.5,393.0 L407.0,392.5 L407.5,392.0 L408.0,391.5 L408.5,391.0 L409.0,390.5 L410.0,390.5 L410.5,390.0 L411.0,389.5 L411.5,389.0 L412.0,388.5 L412.5,388.0 L413.0,387.5 L413.5,387.0 L414.0,386.5 L415.0,386.5 L415.5,386.0 L416.0,385.5 L416.5,385.0 L417.0,384.5 L417.5,384.0 L418.0,383.5 L418.5,383.0 L419.0,382.5 L419.5,382.0 L420.0,381.5 L421.0,381.5 L421.5,381.0 L422.0,380.5 L422.5,380.0 L423.0,379.5 L423.5,379.0 L424.0,378.5 L424.5,378.0 L425.0,377.5 L425.5,377.0 L426.0,376.5 L427.0,376.5 L427.5,376.0 L428.0,375.5 L428.5,375.0 L429.0,374.5 L430.0,374.5 L430.5,374.0 L431.0,373.5 L431.5,373.0 L432.0,372.5 L432.5,372.0 L433.0,371.5 L433.5,371.0 L434.0,370.5 L434.5,370.0 L435.0,369.5 L436.0,369.5 L436.5,369.0 L436.5,368.0 L437.0,367.5 L437.5,367.0 L438.0,366.5 L438.5,366.0 L438.5,365.0 L438.5,364.0 L439.0,363.5 L439.5,363.0 L439.5,362.0 L439.5,361.0 L439.5,360.0 L439.5,359.0 L439.0,358.5 L438.5,358.0 L438.5,357.0 L438.5,356.0 L438.0,355.5 L437.5,355.0 L437.5,354.0 L437.0,353.5 L436.5,353.0 L436.0,352.5 L435.5,352.0 L435.0,351.5 L434.5,351.0 L434.0,350.5 L433.5,350.0 L433.0,349.5 L432.5,349.0 L432.0,348.5 L431.0,348.5 L430.5,348.0 L430.0,347.5 L429.0,347.5 L428.0,347.5 L427.0,347.5 L426.0,347.5 L425.0,347.5 L424.0,347.5 L423.0,347.5 L422.0,347.5 Z"/></g></svg>